<svg xmlns="http://www.w3.org/2000/svg" width="168" height="41" fill="none"><path fill="#fff" d="M48.18 25.311c-2.022-1.983-3.032-4.424-3.032-7.322 0-2.898 1.01-5.34 3.032-7.322 2.02-1.983 4.519-2.975 7.494-2.975 2.193 0 4.118.563 5.777 1.688 1.66 1.125 2.851 2.498 3.576 4.118l-3.776 1.46c-.496-1.03-1.24-1.87-2.23-2.518-.973-.667-2.089-1.001-3.347-1.001-1.774 0-3.27.63-4.491 1.888-1.201 1.258-1.802 2.812-1.802 4.662s.6 3.404 1.802 4.662c1.22 1.259 2.717 1.888 4.49 1.888 1.26 0 2.375-.324 3.347-.972.992-.668 1.735-1.516 2.231-2.546l3.776 1.459c-.725 1.62-1.917 2.993-3.576 4.119-1.659 1.125-3.584 1.687-5.777 1.687-2.975 0-5.473-.992-7.494-2.975Zm20.512.773c-1.506-1.469-2.26-3.29-2.26-5.463 0-2.174.754-3.995 2.26-5.464 1.506-1.468 3.385-2.202 5.635-2.202s4.128.734 5.634 2.202c1.507 1.469 2.26 3.29 2.26 5.463 0 2.174-.753 3.995-2.26 5.464-1.506 1.468-3.384 2.202-5.634 2.202-2.25 0-4.129-.734-5.635-2.202Zm1.745-5.463c0 1.182.371 2.173 1.115 2.974.744.782 1.669 1.173 2.775 1.173 1.106 0 2.03-.391 2.774-1.173.744-.8 1.116-1.792 1.116-2.974 0-1.183-.372-2.165-1.116-2.947-.744-.781-1.668-1.172-2.774-1.172s-2.031.4-2.775 1.201c-.744.782-1.115 1.754-1.115 2.918Zm23.257-7.666c1.64 0 2.956.572 3.947 1.716 1.01 1.144 1.516 2.603 1.516 4.376V28h-3.861v-8.266c0-.954-.305-1.735-.916-2.346-.61-.61-1.372-.915-2.288-.915-1.03 0-1.868.305-2.517.915-.648.61-.972 1.392-.972 2.346V28H84.74V13.241h3.862v3.776c.381-1.259 1.02-2.25 1.916-2.975.915-.725 1.974-1.087 3.175-1.087Zm10.137 13.129c-1.507-1.469-2.26-3.29-2.26-5.463 0-2.174.753-3.995 2.26-5.464 1.506-1.468 3.384-2.202 5.635-2.202 1.582 0 3.003.41 4.261 1.23 1.259.82 2.203 1.973 2.832 3.46l-3.547 1.23c-.324-.762-.801-1.344-1.43-1.744a3.73 3.73 0 0 0-2.116-.63c-1.106 0-2.031.401-2.775 1.202-.744.782-1.115 1.754-1.115 2.918 0 1.182.371 2.173 1.115 2.974.744.782 1.669 1.173 2.775 1.173a3.73 3.73 0 0 0 2.116-.63c.629-.419 1.106-1.01 1.43-1.773l3.547 1.23c-.629 1.488-1.573 2.641-2.832 3.461-1.258.82-2.679 1.23-4.261 1.23-2.251 0-4.129-.734-5.635-2.202ZM118.446 9.15c0-.649.229-1.192.687-1.63a2.258 2.258 0 0 1 1.659-.687c.629 0 1.173.229 1.63.686.458.439.687.982.687 1.63 0 .63-.229 1.173-.687 1.631a2.226 2.226 0 0 1-1.63.687 2.258 2.258 0 0 1-1.659-.687c-.458-.458-.687-1.001-.687-1.63ZM122.708 28h-3.861V13.241h3.861V28Zm6.955-14.759v3.833c.477-1.793 1.211-2.985 2.203-3.576 1.01-.59 2.116-.696 3.318-.314v3.66c-1.545-.533-2.851-.504-3.919.087-1.068.572-1.602 1.506-1.602 2.803V28h-3.861V13.241h3.861Zm13.709-.286c2.479 0 4.462.896 5.95 2.689 1.506 1.773 2.059 3.89 1.658 6.35h-11.383c.267.896.753 1.62 1.458 2.173.725.534 1.583.801 2.575.801 1.678 0 2.898-.686 3.661-2.06l3.175 1.43c-.668 1.202-1.612 2.165-2.832 2.89-1.201.705-2.574 1.058-4.119 1.058-2.25 0-4.128-.734-5.635-2.202-1.506-1.469-2.259-3.29-2.259-5.463 0-2.174.743-3.995 2.231-5.464 1.487-1.468 3.327-2.202 5.52-2.202Zm0 3.318c-.858 0-1.63.257-2.317.772-.667.496-1.134 1.163-1.401 2.002h7.465c-.267-.839-.734-1.506-1.401-2.002-.668-.515-1.45-.772-2.346-.772Zm9.354-3.032h12.414v6.378l-11.356 4.977h11.356V28h-12.414v-6.378l11.355-4.977h-11.355V13.24Z"/><path fill="#FF462D" d="M3.032 28.425C1.01 26.442 0 24 0 21.102c0-2.898 1.01-5.339 3.032-7.322 2.021-1.983 4.52-2.975 7.494-2.975 2.193 0 4.119.563 5.778 1.688 1.659 1.125 2.85 2.498 3.575 4.119l-3.776 1.459c-.495-1.03-1.24-1.87-2.23-2.518-.973-.667-2.089-1-3.347-1-1.774 0-3.27.629-4.49 1.887-1.202 1.259-1.803 2.813-1.803 4.662 0 1.85.6 3.404 1.802 4.663 1.22 1.258 2.717 1.887 4.49 1.887 1.26 0 2.375-.324 3.347-.972.992-.667 1.736-1.516 2.231-2.546l3.776 1.46c-.725 1.62-1.917 2.993-3.575 4.118-1.66 1.125-3.585 1.687-5.778 1.687-2.975 0-5.473-.991-7.494-2.974Z"/><path fill="#FF462D" d="M33.85 8.695c2.021 1.983 3.032 4.424 3.032 7.322 0 2.899-1.01 5.34-3.032 7.323-2.021 1.983-4.52 2.974-7.494 2.974-2.193 0-4.119-.562-5.778-1.687-1.659-1.125-2.85-2.498-3.575-4.119l3.776-1.459a6.16 6.16 0 0 0 2.23 2.517c.973.668 2.088 1.002 3.347 1.002 1.773 0 3.27-.63 4.49-1.888 1.202-1.259 1.803-2.813 1.803-4.663s-.601-3.403-1.802-4.662c-1.22-1.258-2.718-1.888-4.491-1.888-1.259 0-2.374.325-3.347.973-.991.667-1.735 1.516-2.23 2.546l-3.776-1.46c.724-1.62 1.916-2.993 3.575-4.118 1.66-1.125 3.585-1.688 5.778-1.688 2.975 0 5.473.992 7.494 2.975Z"/></svg>