<svg xmlns="http://www.w3.org/2000/svg" width="135" height="34" fill="none"><path fill="#fff" d="M39.12 20.985c-1.622-1.592-2.433-3.55-2.433-5.877 0-2.326.811-4.285 2.434-5.877 1.622-1.591 3.627-2.387 6.014-2.387 1.76 0 3.306.451 4.638 1.354 1.33.903 2.287 2.005 2.869 3.306l-3.03 1.17a4.943 4.943 0 0 0-1.79-2.02c-.781-.535-1.677-.803-2.687-.803-1.423 0-2.624.505-3.604 1.515-.964 1.01-1.446 2.258-1.446 3.742 0 1.485.482 2.732 1.446 3.742.98 1.01 2.18 1.515 3.604 1.515 1.01 0 1.906-.26 2.686-.78a5.103 5.103 0 0 0 1.79-2.044l3.031 1.171c-.582 1.301-1.538 2.403-2.87 3.306-1.331.903-2.877 1.354-4.637 1.354-2.387 0-4.392-.795-6.014-2.387Zm16.464.62c-1.21-1.179-1.814-2.64-1.814-4.385 0-1.745.605-3.206 1.814-4.385 1.209-1.178 2.716-1.767 4.522-1.767s3.313.589 4.523 1.767c1.209 1.179 1.813 2.64 1.813 4.385 0 1.745-.604 3.206-1.813 4.385-1.21 1.178-2.717 1.767-4.523 1.767-1.806 0-3.313-.589-4.522-1.767Zm1.4-4.385c0 .949.298 1.745.895 2.388.597.627 1.34.94 2.227.94.888 0 1.63-.313 2.227-.94.597-.643.895-1.44.895-2.388 0-.949-.298-1.737-.895-2.364-.597-.628-1.34-.942-2.227-.942-.888 0-1.63.322-2.227.965-.596.627-.895 1.408-.895 2.341Zm18.666-6.152c1.316 0 2.372.459 3.168 1.377.811.918 1.217 2.09 1.217 3.512v7.186h-3.1v-6.635c0-.765-.244-1.392-.734-1.882s-1.102-.735-1.836-.735c-.827 0-1.5.245-2.02.735s-.78 1.117-.78 1.882v6.635h-3.1V11.297h3.1v3.03c.305-1.01.818-1.805 1.537-2.387.735-.582 1.584-.872 2.548-.872Zm8.136 10.537c-1.209-1.179-1.814-2.64-1.814-4.385 0-1.745.605-3.206 1.814-4.385 1.21-1.178 2.717-1.767 4.522-1.767 1.27 0 2.411.329 3.421.987 1.01.658 1.768 1.584 2.273 2.778l-2.847.987c-.26-.613-.643-1.08-1.148-1.4a2.994 2.994 0 0 0-1.699-.506c-.887 0-1.63.322-2.226.965-.597.627-.896 1.408-.896 2.341 0 .949.299 1.745.896 2.388.597.627 1.339.94 2.227.94.627 0 1.193-.168 1.698-.504.505-.337.888-.811 1.148-1.424l2.847.988c-.505 1.193-1.263 2.12-2.273 2.777-1.01.658-2.15.987-3.42.987-1.806 0-3.314-.589-4.523-1.767Zm11.73-13.59c0-.52.184-.957.551-1.309.368-.367.812-.551 1.332-.551.505 0 .941.184 1.308.551.368.352.551.788.551 1.308 0 .506-.183.942-.55 1.309a1.788 1.788 0 0 1-1.31.551c-.52 0-.963-.184-1.33-.551a1.788 1.788 0 0 1-.552-1.309Zm3.421 15.128h-3.1V11.297h3.1v11.846Zm5.582-11.846v3.076c.383-1.438.972-2.395 1.768-2.87.811-.474 1.699-.558 2.663-.252v2.939c-1.24-.429-2.288-.406-3.145.069-.857.459-1.286 1.209-1.286 2.25v6.634h-3.099V11.297h3.099Zm11.003-.23c1.989 0 3.581.72 4.775 2.159 1.209 1.423 1.653 3.122 1.331 5.096h-9.136c.214.72.604 1.3 1.17 1.745.582.428 1.271.642 2.066.642 1.347 0 2.327-.55 2.939-1.652l2.548 1.147a6.117 6.117 0 0 1-2.273 2.319c-.964.566-2.066.85-3.305.85-1.806 0-3.314-.59-4.523-1.768-1.209-1.179-1.813-2.64-1.813-4.385 0-1.745.596-3.206 1.79-4.385 1.194-1.178 2.671-1.767 4.431-1.767Zm0 2.664c-.689 0-1.309.206-1.86.62-.535.397-.91.933-1.125 1.606h5.992c-.214-.673-.589-1.209-1.125-1.607-.535-.413-1.163-.62-1.882-.62Zm7.507-2.434h9.963v5.12l-9.113 3.994h9.113v2.732h-9.963v-5.12l9.114-3.994h-9.114v-2.732Z"/><path fill="#FF462D" d="M2.885 22.956C1.263 21.365.452 19.406.452 17.08c0-2.326.81-4.285 2.433-5.876C4.507 9.61 6.512 8.815 8.9 8.815c1.76 0 3.305.452 4.637 1.355 1.331.903 2.288 2.005 2.87 3.305l-3.03 1.171a4.944 4.944 0 0 0-1.791-2.02c-.781-.536-1.676-.803-2.686-.803-1.424 0-2.625.505-3.605 1.515-.964 1.01-1.446 2.257-1.446 3.742 0 1.484.482 2.731 1.446 3.741.98 1.01 2.181 1.516 3.605 1.516 1.01 0 1.905-.26 2.686-.781a5.103 5.103 0 0 0 1.79-2.043l3.03 1.17c-.581 1.302-1.538 2.404-2.87 3.306-1.33.903-2.876 1.355-4.636 1.355-2.388 0-4.393-.796-6.015-2.388Z"/><path fill="#FF462D" d="M27.62 7.121c1.622 1.592 2.433 3.551 2.433 5.877 0 2.327-.811 4.286-2.434 5.877-1.622 1.592-3.627 2.388-6.014 2.388-1.76 0-3.306-.452-4.637-1.355-1.332-.903-2.288-2.005-2.87-3.306l3.03-1.17c.398.826.995 1.5 1.79 2.02.781.536 1.677.803 2.687.803 1.423 0 2.624-.505 3.604-1.515.964-1.01 1.446-2.257 1.446-3.742 0-1.484-.482-2.731-1.446-3.742-.98-1.01-2.181-1.515-3.604-1.515-1.01 0-1.906.26-2.686.78a5.103 5.103 0 0 0-1.79 2.044l-3.031-1.17c.582-1.302 1.538-2.404 2.87-3.307 1.331-.903 2.877-1.354 4.637-1.354 2.387 0 4.392.796 6.014 2.387Z"/></svg>