<svg xmlns="http://www.w3.org/2000/svg" width="756" height="539" fill="none"><path fill="url(#a)" stroke="url(#b)" stroke-width="2" d="m417.384 228.316.982-.38-.43-.961c-15.213-34.03-40.227-62.831-74.996-86.41-34.816-23.611-75.224-35.405-121.187-35.405-62.351 0-114.759 20.795-157.155 62.391C22.203 209.147 1 260.363 1 321.137c0 60.773 21.203 111.99 63.598 153.585 42.396 41.597 94.804 62.391 157.155 62.391 45.963 0 86.371-11.794 121.187-35.405 34.769-23.578 59.783-52.38 74.996-86.41l.43-.961-.982-.38-78.825-30.455-.861-.332-.4.831c-10.27 21.33-25.674 38.911-46.234 52.75-20.126 13.417-43.218 20.134-69.311 20.134-36.754 0-67.744-13.029-93.031-39.104-24.89-26.076-37.343-58.268-37.343-96.644 0-38.376 12.452-70.568 37.342-96.644 25.287-26.076 56.277-39.105 93.032-39.105 26.088 0 49.177 6.913 69.302 20.725l.009.006.01.006c20.554 13.44 35.955 30.82 46.224 52.147l.4.832.861-.333 78.825-30.455Z"/><path fill="url(#c)" stroke="url(#d)" stroke-width="2" d="m356.619 307.797-.982.379.429.962c15.214 34.03 40.228 62.831 74.997 86.41 34.816 23.611 75.224 35.404 121.186 35.404 62.352 0 114.76-20.794 157.156-62.39 42.395-41.596 63.598-92.813 63.598-153.586 0-60.773-21.203-111.99-63.598-153.586C667.009 19.794 614.601-1 552.25-1c-45.963 0-86.371 11.793-121.187 35.404-34.769 23.58-59.783 52.38-74.997 86.41l-.429.962.982.379 78.825 30.455.861.333.4-.832c10.27-21.329 25.674-38.911 46.234-52.75 20.126-13.416 43.218-20.134 69.311-20.134 36.754 0 67.744 13.03 93.031 39.105 24.89 26.076 37.343 58.268 37.343 96.644 0 38.376-12.452 70.568-37.342 96.643-25.287 26.077-56.277 39.106-93.033 39.106-26.087 0-49.176-6.914-69.301-20.725l-.009-.006-.01-.007c-20.554-13.439-35.955-30.819-46.224-52.146l-.4-.832-.861.333-78.825 30.455Z"/><defs><linearGradient id="a" x1="209.512" x2="209.512" y1="106.16" y2="536.113" gradientUnits="userSpaceOnUse"><stop stop-color="#FF462D" stop-opacity=".1"/><stop offset="1" stop-color="#EAEAEA" stop-opacity=".01"/></linearGradient><linearGradient id="b" x1="209.512" x2="209.512" y1="106.16" y2="536.113" gradientUnits="userSpaceOnUse"><stop stop-color="#FF462D" stop-opacity=".5"/><stop offset="1" stop-color="#992A1B" stop-opacity=".1"/></linearGradient><linearGradient id="c" x1="564.491" x2="564.491" y1="429.952" y2="0" gradientUnits="userSpaceOnUse"><stop stop-color="#FF462D" stop-opacity=".1"/><stop offset="1" stop-color="#EAEAEA" stop-opacity=".01"/></linearGradient><linearGradient id="d" x1="564.491" x2="564.491" y1="429.952" y2="0" gradientUnits="userSpaceOnUse"><stop stop-color="#FF462D" stop-opacity=".5"/><stop offset="1" stop-color="#992A1B" stop-opacity=".1"/></linearGradient></defs></svg>